<svg width="28" height="28" viewBox="0 0 28 28" fill="none" xmlns="http://www.w3.org/2000/svg">
<g clip-path="url(#clip0_14050_77724)">
<path d="M11.0425 20.6212C10.4731 21.5464 9.34543 22.9369 7.46228 23.3803L7.89474 21.9569C7.89474 21.9569 6.22506 23.0682 4.62109 23.3803C4.93314 21.7708 6.04445 20.1066 6.04445 20.1066L4.62109 20.5391C5.06448 18.6559 6.45498 17.5282 7.38015 16.9589L11.3222 16.1311L11.0425 20.6212Z" fill="#F59E0B"/>
<path d="M17.2693 24.4068C15.2124 26.4637 11.9192 26.5288 9.78433 24.6031C10.627 24.5138 11.5355 23.8435 11.6626 22.6639C11.7156 22.174 11.6332 21.5959 11.3552 20.9349L7.06512 16.6449C6.40418 16.3669 5.82603 16.2845 5.33609 16.3374C4.15653 16.4645 3.48622 17.3729 3.39692 18.2157C1.47125 16.0809 1.53632 12.7876 3.59323 10.7307C4.80954 9.51437 6.45921 8.99476 8.04565 9.17199C8.77305 9.25337 9.48696 9.48048 10.1399 9.85505L18.1449 17.86C18.5195 18.513 18.747 19.2272 18.828 19.9543C19.0053 21.5407 18.4856 23.1905 17.2693 24.4068Z" fill="black"/>
<path d="M18.8279 19.9543C16.6972 21.3773 14.2605 22.2746 11.6625 22.6638C11.7154 22.1739 11.633 21.5957 11.355 20.9348L7.06497 16.6447C6.40403 16.3667 5.82587 16.2843 5.33594 16.3373C5.72509 13.7392 6.62251 11.3025 8.04545 9.17188C8.77285 9.25325 9.48676 9.48036 10.1397 9.85494L18.1447 17.8599C18.5194 18.513 18.7469 19.2272 18.8279 19.9543Z" fill="black"/>
<path d="M11.3544 20.935C14.6936 20.168 17.8649 18.4845 20.4662 15.8832C24.2867 12.0626 26.1284 7.01293 25.9924 2.00701C20.9865 1.87103 15.9368 3.71265 12.1163 7.53319C9.51489 10.1346 7.83137 13.3057 7.06445 16.6449L11.3544 20.935Z" fill="#CBD5E1"/>
<path d="M14.286 9.70305C11.6848 12.3042 9.6144 15.0892 8.17928 17.7596L7.06445 16.6448C7.83095 13.3059 9.51498 10.1345 12.1162 7.5333C15.9367 3.71272 20.9863 1.87119 25.9923 2.00727C22.3224 3.20726 18.1065 5.88256 14.286 9.70305Z" fill="#94A3B8"/>
<path d="M24.876 8.9534C23.7574 8.2814 22.6481 7.41928 21.6142 6.3855C21.115 5.88628 20.6562 5.37 20.2394 4.84379C19.7924 4.27908 19.3932 3.70266 19.0449 3.12376C21.2722 2.31877 23.6207 1.94659 25.9597 2.00617C25.9708 2.00687 25.9819 2.00687 25.9926 2.0072L25.9923 2.00752C26.056 4.35699 25.6845 6.71578 24.876 8.9534Z" fill="black"/>
<path d="M25.9925 2.0072L25.9922 2.00752C24.1707 2.6027 22.2146 3.56171 20.2394 4.84379C19.7924 4.27908 19.3932 3.70266 19.0449 3.12376C21.2721 2.31877 23.6206 1.94659 25.9597 2.00617C25.9707 2.00687 25.9818 2.00687 25.9925 2.0072Z" fill="black"/>
<path d="M17.602 13.9254C19.5504 13.9254 21.1298 12.3459 21.1298 10.3976C21.1298 8.4492 19.5504 6.86975 17.602 6.86975C15.6537 6.86975 14.0742 8.4492 14.0742 10.3976C14.0742 12.3459 15.6537 13.9254 17.602 13.9254Z" fill="black"/>
<path d="M17.6022 12.7733C18.9143 12.7733 19.9779 11.7097 19.9779 10.3976C19.9779 9.0856 18.9143 8.02197 17.6022 8.02197C16.2902 8.02197 15.2266 9.0856 15.2266 10.3976C15.2266 11.7097 16.2902 12.7733 17.6022 12.7733Z" fill="white"/>
</g>
<defs>
<clipPath id="clip0_14050_77724">
<rect width="24" height="24" fill="white" transform="translate(2 2)"/>
</clipPath>
</defs>
</svg>
