<svg width="28" height="28" viewBox="0 0 28 28" fill="none" xmlns="http://www.w3.org/2000/svg">
<g clip-path="url(#clip0_14963_155432)">
<path d="M11.0425 20.6212C10.4731 21.5464 9.34543 22.9369 7.46228 23.3803L7.89474 21.9569C7.89474 21.9569 6.22506 23.0682 4.62109 23.3803C4.93314 21.7708 6.04445 20.1066 6.04445 20.1066L4.62109 20.5391C5.06448 18.6559 6.45498 17.5282 7.38015 16.9589L11.3222 16.1311L11.0425 20.6212Z" fill="#F59E0B"/>
<path d="M17.2693 24.4068C15.2124 26.4637 11.9192 26.5288 9.78433 24.6031C10.627 24.5138 11.5355 23.8435 11.6626 22.6639C11.7156 22.174 11.6332 21.5959 11.3552 20.9349L7.06512 16.6449C6.40418 16.3669 5.82603 16.2845 5.33609 16.3374C4.15653 16.4645 3.48622 17.3729 3.39692 18.2157C1.47125 16.0809 1.53632 12.7876 3.59323 10.7307C4.80954 9.51437 6.45921 8.99476 8.04565 9.17199C8.77305 9.25337 9.48696 9.48048 10.1399 9.85505L18.1449 17.86C18.5195 18.513 18.747 19.2272 18.828 19.9543C19.0053 21.5407 18.4856 23.1905 17.2693 24.4068Z" fill="#94A3B8"/>
<path d="M18.8279 19.9544C16.6972 21.3774 14.2605 22.2748 11.6625 22.6639C11.7154 22.174 11.633 21.5958 11.355 20.9349L7.06497 16.6448C6.40403 16.3668 5.82587 16.2844 5.33594 16.3374C5.72509 13.7393 6.62251 11.3026 8.04545 9.172C8.77285 9.25337 9.48676 9.48048 10.1397 9.85506L18.1447 17.86C18.5194 18.5131 18.7469 19.2273 18.8279 19.9544Z" fill="black"/>
<path d="M11.3544 20.935C14.6936 20.168 17.8649 18.4845 20.4662 15.8832C24.2867 12.0626 26.1284 7.01293 25.9924 2.00701C20.9865 1.87103 15.9368 3.71265 12.1163 7.53319C9.51489 10.1346 7.83137 13.3057 7.06445 16.6449L11.3544 20.935Z" fill="#CBD5E1"/>
<path d="M14.286 9.70305C11.6848 12.3042 9.6144 15.0892 8.17928 17.7596L7.06445 16.6448C7.83095 13.3059 9.51498 10.1345 12.1162 7.5333C15.9367 3.71272 20.9863 1.87119 25.9923 2.00727C22.3224 3.20726 18.1065 5.88256 14.286 9.70305Z" fill="#CBD5E1"/>
<path d="M24.878 8.95352C23.7594 8.28153 22.6501 7.4194 21.6162 6.38562C21.117 5.88641 20.6582 5.37013 20.2413 4.84391C19.7943 4.27921 19.3952 3.70278 19.0469 3.12388C21.2741 2.3189 23.6226 1.94671 25.9617 2.00629C25.9727 2.00699 25.9838 2.00699 25.9946 2.00732L25.9943 2.00765C26.0579 4.35711 25.6864 6.7159 24.878 8.95352Z" fill="#94A3B8"/>
<path d="M25.9945 2.00732L25.9942 2.00765C24.1727 2.60282 22.2166 3.56183 20.2413 4.84391C19.7943 4.27921 19.3952 3.70278 19.0469 3.12388C21.2741 2.3189 23.6226 1.94671 25.9616 2.00629C25.9727 2.00699 25.9838 2.00699 25.9945 2.00732Z" fill="#94A3B8"/>
<path d="M17.602 13.9255C19.5504 13.9255 21.1298 12.346 21.1298 10.3977C21.1298 8.44933 19.5504 6.86987 17.602 6.86987C15.6537 6.86987 14.0742 8.44933 14.0742 10.3977C14.0742 12.346 15.6537 13.9255 17.602 13.9255Z" fill="black"/>
<path d="M17.6022 12.7733C18.9143 12.7733 19.9779 11.7097 19.9779 10.3976C19.9779 9.0856 18.9143 8.02197 17.6022 8.02197C16.2902 8.02197 15.2266 9.0856 15.2266 10.3976C15.2266 11.7097 16.2902 12.7733 17.6022 12.7733Z" fill="white"/>
</g>
<defs>
<clipPath id="clip0_14963_155432">
<rect width="24" height="24" fill="white" transform="translate(2 2)"/>
</clipPath>
</defs>
</svg>
